<?xml version="1.0" encoding="utf-8"?>
<svg xmlns="http://www.w3.org/2000/svg" shape-rendering="geometricPrecision" text-rendering="geometricPrecision" image-rendering="optimizeQuality" fill-rule="evenodd" clip-rule="evenodd">
    <path fill="#fdfcf9" d="M83.5 15.5c4.659-.485 5.992 1.348 4 5.5-4.772.81-6.105-1.023-4-5.5Z" opacity=".073" />
    <path fill="#fdfaf4" d="M94.5 18.5c5.813-.438 7.48 2.062 5 7.5-7.13 1.211-8.798-1.289-5-7.5Z" opacity=".086" />
    <path fill="#fef6f2" d="M36.5 19.5c4.177-.658 5.677 1.008 4.5 5-3.546-.16-7.046.34-10.5 1.5-1.833-4.833-.333-6.333 4.5-4.5.717-.544 1.217-1.21 1.5-2Z" opacity=".062" />
    <path fill="#fefcfb" d="M104.5 20.5c6.658-1.155 8.658 1.345 6 7.5-6.98 1.168-8.98-1.332-6-7.5Z" opacity=".084" />
    <path fill="#f1bc4a" d="M95.5 21.5c3.457.167 3.79 1.167 1 3-.886-.825-1.219-1.825-1-3Z" opacity=".929" />
    <path fill="#f8f5f4" d="M56.5 23.5c13.5-1.832 26 .835 37.5 8 8.511-1.473 11.344 2.027 8.5 10.5 2.473 1.562 4.473 3.562 6 6 7.875-.29 11.541 3.542 11 11.5 6.687 3.78 7.687 8.78 3 15 2.067 4.905 1.067 8.905-3 12 .128 4.893-1.872 8.56-6 11-.295 3.641-1.961 6.475-5 8.5-4.845.631-9.512-.035-14-2A59.82 59.82 0 0 1 87 89.5c-13.1-12.654-25.1-11.654-36 3-2.085 4.375-1.918 8.542.5 12.5 2.333.667 4.667.667 7 0a31.985 31.985 0 0 0 5-6c2.73-.942 4.063.058 4 3a191.62 191.62 0 0 0-2 9.5c8.393-.33 16.727.17 25 1.5 3.137 4.095 2.137 6.762-3 8a351.244 351.244 0 0 1-64-1C10.661 115.826 3.828 106.993 3 93.5 1.936 78.821 5.436 65.321 13.5 53a92.367 92.367 0 0 1-.5-9.5c2.493-1.446 4.326-.779 5.5 2 10.332-11.495 23-18.829 38-22Z" opacity=".107" />
    <path fill="#f1bc5a" d="M106.5 22.5c1.495-.085 2.495.581 3 2-.82 1.611-2.154 2.278-4 2-.067-1.459.266-2.792 1-4Z" opacity=".937" />
    <path fill="#f6faf4" d="M120.5 29.5c4.659-.485 5.992 1.348 4 5.5-4.772.81-6.105-1.023-4-5.5Z" opacity=".069" />
    <path fill="#fafbf9" d="M106.5 30.5a8.435 8.435 0 0 1 4 .5 46.889 46.889 0 0 1 6.5 9.5c3.692-1.313 5.359.02 5 4-2.632 2.692-4.966 2.359-7-1-4.619 2.945-7.785 1.778-9.5-3.5 2.256-2.485 2.256-4.818 0-7 .243-.902.577-1.735 1-2.5Z" opacity=".07" />
    <path fill="#fce790" d="M95.5 41.5c-1.065-2.595-2.732-4.761-5-6.5a31.343 31.343 0 0 0-12 .5c.418-.722 1.084-1.222 2-1.5-9.004-1.827-16.338.84-22 8a8.434 8.434 0 0 1-4 .5c3.406-3.548 7.406-6.382 12-8.5-6.836-2.925-12.503-1.425-17 4.5l-3 2c-.438.065-.772-.101-1-.5l3-3c-2.304.573-4.47 1.74-6.5 3.5-.667-1-.667-2 0-3A71.549 71.549 0 0 1 53.5 29a2.428 2.428 0 0 0-2-.5c2.649-1.61 5.649-2.443 9-2.5 12.047-.697 23.214 2.137 33.5 8.5 3.857-2.83 6.357-1.83 7.5 3-.636 3.294-2.636 4.627-6 4Z" />
    <path fill="#fdfcfc" d="M17.5 37.5c3.661-.15 4.661 1.35 3 4.5-3.793.487-4.793-1.013-3-4.5Z" opacity=".036" />
    <path fill="#fde36b" d="M54.5 42.5h-1v-4h-4c4.497-5.925 10.164-7.425 17-4.5-4.594 2.118-8.594 4.952-12 8.5Z" />
    <path fill="#66b764" d="M109.5 37.5c3.661-.15 4.661 1.35 3 4.5-3.793.487-4.793-1.013-3-4.5Z" opacity=".958" />
    <path fill="#fce270" d="M78.5 35.5c-7.144 2.738-13.478 6.738-19 12a2.428 2.428 0 0 0-2 .5c-5.272 4.764-9.939 9.931-14 15.5-.958.453-1.792 1.12-2.5 2-.066-4.727 1.267-9.06 4-13a133.24 133.24 0 0 0 9.5-10 8.434 8.434 0 0 0 4-.5c5.662-7.16 12.996-9.827 22-8-.916.278-1.582.778-2 1.5Z" />
    <path fill="#f8d12b" d="M95.5 41.5h-1c-3.008-.2-6.008-.534-9-1-2.655-.06-4.989.607-7 2a59.271 59.271 0 0 0-13 6.5 289.815 289.815 0 0 0-15 13.5c-.908-1.952-.741-3.952.5-6 3.038-2.87 5.871-5.87 8.5-9 5.522-5.262 11.856-9.262 19-12a31.343 31.343 0 0 1 12-.5c2.268 1.739 3.935 3.905 5 6.5Z" />
    <path fill="#fbfcfb" d="M123.5 44.5c5.484-.02 7.15 2.48 5 7.5-7.131 1.211-8.798-1.289-5-7.5Z" opacity=".073" />
    <path fill="#b2cb51" d="M94.5 41.5c2.106 1.579 4.44 2.912 7 4h-9a32.437 32.437 0 0 0-8 .5c-.916.278-1.582.778-2 1.5a126.554 126.554 0 0 0-12 4 8.434 8.434 0 0 1-4-.5c4.12-3.393 8.786-5.726 14-7l1-1a4.932 4.932 0 0 0-3-.5c2.011-1.393 4.345-2.06 7-2 2.992.466 5.992.8 9 1Z" />
    <path fill="#fa9558" d="M35.5 35.5a2.428 2.428 0 0 1 2 .5 176.297 176.297 0 0 0-11 11.5l-8 4c4.38-6.714 10.047-12.048 17-16Z" opacity=".984" />
    <path fill="#4ead7d" d="M124.5 47.5c3.457.167 3.79 1.167 1 3-.886-.825-1.219-1.825-1-3Z" opacity=".914" />
    <path fill="#de4a3d" d="M15.5 49.5c1.837.14 2.17.806 1 2-.797-.457-1.13-1.124-1-2Z" opacity=".953" />
    <path fill="#fac763" d="M51.5 28.5a2.428 2.428 0 0 1 2 .5A71.549 71.549 0 0 0 42 37.5c-.667 1-.667 2 0 3 2.03-1.76 4.196-2.927 6.5-3.5l-3 3c.228.399.562.565 1 .5a119.253 119.253 0 0 0-12 14 50.536 50.536 0 0 0-6 12h-1c.89-3.077 1.724-6.077 2.5-9a48.351 48.351 0 0 1-7.5 11v-3a38.494 38.494 0 0 1 6-13c-.855-.793-1.689-.46-2.5 1-.77-1.098-1.603-1.098-2.5 0 .97-1.983 1.97-3.983 3-6a176.297 176.297 0 0 1 11-11.5 2.428 2.428 0 0 0-2-.5c4.806-3.4 10.14-5.733 16-7Z" />
    <path fill="#a0cda5" d="M105.5 50.5v1c-5.347.573-10.68 1.24-16 2 5.006-2.06 10.34-3.06 16-3Z" />
    <path fill="#f3f4f6" d="M129.5 52.5c5.999-.498 8.166 2.169 6.5 8-4.438 4.344-7.605 3.677-9.5-2 .128-2.455 1.128-4.455 3-6Z" opacity=".091" />
    <path fill="#faca33" d="M49.5 38.5h4v4c-5.733 4.73-10.733 10.064-15 16-.667-2-2-3.333-4-4a119.253 119.253 0 0 1 12-14l3-2Z" />
    <path fill="#83c88b" d="M104.5 59.5h-11c2.469-.817 5.135-1.317 8-1.5 1.216-1.74 2.882-2.74 5-3 .752-.67 1.086-1.504 1-2.5 3.01-2.776 5.844-2.442 8.5 1 .825 2.2.325 4.034-1.5 5.5-3.317.498-6.65.665-10 .5Z" />
    <path fill="#4db98d" d="M105.5 51.5c.342.838 1.008 1.172 2 1 .086.996-.248 1.83-1 2.5-2.118.26-3.784 1.26-5 3-2.865.183-5.531.683-8 1.5a24.93 24.93 0 0 0-8 1 4.932 4.932 0 0 1-3-.5 82.434 82.434 0 0 0 7-4.5c-.825-.886-1.825-1.219-3-1 .709-.904 1.709-1.237 3-1 5.32-.76 10.653-1.427 16-2Z" />
    <path fill="#6abb62" d="M92.5 45.5h9c2.824.49 4.157 2.156 4 5-5.66-.06-10.994.94-16 3-1.291-.237-2.291.096-3 1l-12 4c.978-3.471 3.312-5.305 7-5.5 3.42-3.03 7.087-5.53 11-7.5Z" />
    <path fill="#316eaa" d="M130.5 55.5h3c.744 3.45-.59 5.116-4 5-.134-1.791.199-3.458 1-5Z" opacity=".958" />
    <path fill="#45ad9d" d="M86.5 54.5c1.175-.219 2.175.114 3 1a82.434 82.434 0 0 1-7 4.5c.948.483 1.948.65 3 .5a81.545 81.545 0 0 0-13 6c-7.436 2.78-14.102 6.78-20 12 2.393-3.902 5.393-7.402 9-10.5a198.385 198.385 0 0 0 13-9.5l12-4Z" />
    <path fill="#f4ab21" d="M34.5 54.5c2 .667 3.333 2 4 4l-4 8c-2.222-.322-4.056.345-5.5 2a2.428 2.428 0 0 1-.5-2 50.536 50.536 0 0 1 6-12Z" />
    <path fill="#f8da79" d="M53.5 42.5h1a133.24 133.24 0 0 1-9.5 10c-2.733 3.94-4.066 8.273-4 13 .708-.88 1.542-1.547 2.5-2a58.864 58.864 0 0 1-5 9c-.041-2.245-.874-2.912-2.5-2-1.435 4.657-3.435 8.99-6 13-.5 5.323-.666 10.656-.5 16-1.232-6.524-1.232-13.191 0-20a107.529 107.529 0 0 1 5-13l4-8c4.267-5.936 9.267-11.27 15-16Z" />
    <path fill="#3da1bd" d="M93.5 59.5h11a31.588 31.588 0 0 1 9 3c-8.434-.549-16.434.785-24 4-2.541-.351-4.208-.018-5 1-3.474 1.025-7.14 1.692-11 2a8.434 8.434 0 0 1-4-.5c1.442-.377 2.442-1.21 3-2.5a81.545 81.545 0 0 1 13-6 24.93 24.93 0 0 1 8-1Z" />
    <path fill="#f68f4b" d="M22.5 65.5c-2.556 4.212-3.89 8.878-4 14h-1c-1.694 1.027-3.027 2.36-4 4 .507-4.36 1.173-8.693 2-13 1.349-6.36 4.015-12.027 8-17 .897-1.098 1.73-1.098 2.5 0 .811-1.46 1.645-1.793 2.5-1a38.494 38.494 0 0 0-6 13Z" />
    <path fill="#46b7cb" d="M113.5 62.5c6.993-1.504 9.827 1.163 8.5 8-1.444 1.655-3.278 2.322-5.5 2-.992.172-1.658-.162-2-1-7.794-3.692-16.127-5.359-25-5 7.566-3.215 15.566-4.549 24-4Z" />
    <path fill="#38a561" d="M92.5 45.5c-3.913 1.97-7.58 4.47-11 7.5-3.688.195-6.022 2.029-7 5.5a198.385 198.385 0 0 1-13 9.5c-3.607 3.098-6.607 6.598-9 10.5a60.075 60.075 0 0 0-7 11c-.352-4.08.648-8.08 3-12 8.535-13.203 19.868-23.203 34-30 .418-.722 1.084-1.222 2-1.5a32.437 32.437 0 0 1 8-.5Z" />
    <path fill="#f0b487" d="M22.5 65.5v3a141.478 141.478 0 0 0-4 11c.11-5.122 1.444-9.788 4-14Z" />
    <path fill="#82b74c" d="M78.5 42.5a4.932 4.932 0 0 1 3 .5l-1 1c-5.214 1.274-9.88 3.607-14 7a8.434 8.434 0 0 0 4 .5c-8.591 5.922-16.258 12.921-23 21l-4 1a94.079 94.079 0 0 1 7-11c4.83-4.663 9.83-9.163 15-13.5a59.271 59.271 0 0 1 13-6.5Z" />
    <path fill="#19734d" d="M82.5 47.5c-14.132 6.797-25.465 16.797-34 30 .268-1.599-.066-2.932-1-4v-1c6.742-8.079 14.409-15.078 23-21a126.554 126.554 0 0 1 12-4Z" />
    <path fill="#a5cbda" d="M89.5 66.5c8.873-.359 17.206 1.308 25 5-1.459.067-2.792-.266-4-1a111.703 111.703 0 0 0-18-3h-8c.792-1.018 2.459-1.351 5-1Z" />
    <path fill="#214d91" d="M84.5 67.5h8a5.576 5.576 0 0 1-1 3 28.283 28.283 0 0 0 10 3c3.9 1.623 7.567 3.79 11 6.5 1.323.816 1.989 1.983 2 3.5h-4c-13.46-9.3-27.794-11.3-43-6-9.714 2.387-16.714 8.054-21 17 1.415-6.93 5.082-12.43 11-16.5 4.983-3.656 10.316-6.49 16-8.5 3.86-.308 7.526-.975 11-2Z" />
    <path fill="#2676b5" d="M92.5 67.5a111.703 111.703 0 0 1 18 3 31.588 31.588 0 0 0-9 3 28.283 28.283 0 0 1-10-3 5.576 5.576 0 0 0 1-3Z" />
    <path fill="#f8aa44" d="M27.5 66.5a27.185 27.185 0 0 0-3 5 191.86 191.86 0 0 0-6 18v-10a141.478 141.478 0 0 1 4-11 48.351 48.351 0 0 0 7.5-11 416.905 416.905 0 0 1-2.5 9Z" />
    <path fill="#f34c38" d="M26.5 47.5a399.289 399.289 0 0 0-3 6c-3.985 4.973-6.651 10.64-8 17l-2 3a4.932 4.932 0 0 0-.5-3 24.834 24.834 0 0 1-5 8 50.475 50.475 0 0 0-1.5 15c-1.322-15.36 2.678-29.36 12-42l8-4Z" />
    <path fill="#f9d245" d="M38.5 72.5c-3.364 5.783-5.03 12.117-5 19l-4 8c-.166-5.344 0-10.677.5-16 2.565-4.01 4.565-8.343 6-13 1.626-.912 2.459-.245 2.5 2Z" />
    <path fill="#f1d174" d="M38.5 72.5a280.405 280.405 0 0 1-3.5 13 84.938 84.938 0 0 0-.5 13c-1.1-.805-1.434-3.138-1-7-.03-6.883 1.636-13.217 5-19Z" />
    <path fill="#369bca" d="M110.5 70.5c1.208.734 2.541 1.067 4 1 .342.838 1.008 1.172 2 1 .815 1.337 1.982 2.337 3.5 3 2.291 3.335 1.791 6.168-1.5 8.5-1.566.765-2.899.598-4-.5-.011-1.517-.677-2.684-2-3.5-3.433-2.71-7.1-4.877-11-6.5a31.588 31.588 0 0 1 9-3Z" opacity=".999" />
    <path fill="#2f82a4" d="M72.5 66.5c-.558 1.29-1.558 2.123-3 2.5a8.434 8.434 0 0 0 4 .5c-5.684 2.01-11.017 4.844-16 8.5-5.918 4.07-9.585 9.57-11 16.5a39.703 39.703 0 0 0 1 11c-4.431-4.783-5.098-10.116-2-16a60.075 60.075 0 0 1 7-11c5.898-5.22 12.564-9.22 20-12Z" />
    <path fill="#efbc1f" d="M59.5 47.5a107.231 107.231 0 0 1-8.5 9c-1.241 2.048-1.408 4.048-.5 6a94.079 94.079 0 0 0-7 11c-3.827 6.816-5.827 14.15-6 22a10.174 10.174 0 0 0-3 3c-.166-4.346.001-8.68.5-13a280.405 280.405 0 0 0 3.5-13 58.864 58.864 0 0 0 5-9c4.061-5.569 8.728-10.736 14-15.5a2.428 2.428 0 0 1 2-.5Z" />
    <path fill="#15634d" d="M47.5 73.5c.934 1.068 1.268 2.401 1 4-2.352 3.92-3.352 7.92-3 12-3.098 5.884-2.431 11.217 2 16 2.388 2.576 5.388 3.576 9 3-3.125.979-6.458 1.313-10 1l-2-1c-2.603-7.065-3.603-14.398-3-22a41.676 41.676 0 0 1 6-13Z" />
    <path fill="#ef9220" d="M27.5 66.5h1a2.428 2.428 0 0 0 .5 2c1.444-1.655 3.278-2.322 5.5-2a107.529 107.529 0 0 0-5 13c-2.693 1.782-4.693 4.115-6 7a76.1 76.1 0 0 1 4-20Z" />
    <path fill="#352a58" d="M74.5 77.5c8.444-.744 16.444.756 24 4.5l3 3c-3.168.109-5.835 1.275-8 3.5a78.81 78.81 0 0 1 7 9 20.692 20.692 0 0 1 1 5c-1.59 1.121-3.256.954-5-.5-2.566-7.793-6.899-14.46-13-20l-9-4.5Z" />
    <path fill="#ee8f32" d="M24.5 71.5a158.857 158.857 0 0 0-3 17.5c.146 2.76.813 5.26 2 7.5 1.195 8.376 5.695 14.376 13.5 18 .692.937.525 1.603-.5 2a32.305 32.305 0 0 1-12-7c-1-.333-1.667-1-2-2-3.186-5.564-4.519-11.564-4-18a191.86 191.86 0 0 1 6-18Z" />
    <path fill="#5aa447" d="M47.5 72.5v1a41.676 41.676 0 0 0-6 13 524.103 524.103 0 0 0-2 14c-1.038-1.43-1.704-3.097-2-5 .173-7.85 2.173-15.184 6-22l4-1Z" />
    <path fill="#3f3476" d="m110.5 83.5 1 2c-2.471-.267-4.138.733-5 3 .989 1.994 1.989 3.994 3 6-1 .333-1.667 1-2 2-2.559-.302-4.893.032-7 1a78.81 78.81 0 0 0-7-9c2.165-2.225 4.832-3.391 8-3.5l-3-3c-7.556-3.744-15.556-5.244-24-4.5h-7c15.206-5.3 29.54-3.3 43 6Z" />
    <path fill="#5f54a5" d="M111.5 85.5c4.988 1.304 5.988 3.97 3 8a9.107 9.107 0 0 1-5 1 1054.746 1054.746 0 0 1-3-6c.862-2.267 2.529-3.267 5-3Z" opacity=".997" />
    <path fill="#eda865" d="M27.5 66.5a76.1 76.1 0 0 0-4 20v10c-1.187-2.24-1.854-4.74-2-7.5a158.857 158.857 0 0 1 3-17.5 27.185 27.185 0 0 1 3-5Z" />
    <path fill="#d82823" d="M13.5 73.5a81.605 81.605 0 0 0-1.5 24c.24 2.352 1.073 4.352 2.5 6 .25 2.174 1.25 3.841 3 5 .667 2.667 2.333 4.333 5 5 1.475 1.91 3.475 3.076 6 3.5a2.429 2.429 0 0 1-2 .5c-12.838-2.84-19.505-10.84-20-24-.25-5.08.25-10.08 1.5-15a24.834 24.834 0 0 0 5-8c.483.948.65 1.948.5 3Z" />
    <path fill="#e2987c" d="M15.5 70.5a177.971 177.971 0 0 0-2 13c-1.243 6.687-.91 13.353 1 20-1.427-1.648-2.26-3.648-2.5-6a81.605 81.605 0 0 1 1.5-24l2-3Z" />
    <path fill="#723695" d="M107.5 96.5c1.877 1.16 2.377 2.826 1.5 5-2.242 2.215-4.742 2.548-7.5 1a20.692 20.692 0 0 0-1-5c2.107-.968 4.441-1.302 7-1Z" opacity=".986" />
    <path fill="#ecb18b" d="M17.5 79.5h1v10c-.519 6.436.814 12.436 4 18-2.246-2.149-3.746-4.816-4.5-8-.5-6.658-.666-13.325-.5-20Z" />
    <path fill="#e07721" d="M29.5 79.5c-1.232 6.809-1.232 13.476 0 20 .227 4.453 2.06 8.12 5.5 11a7.292 7.292 0 0 0 2-3c5.795 5.318 12.629 7.318 20.5 6-.342.838-1.008 1.172-2 1a218.234 218.234 0 0 1-14 1.5l1 1c-2.212.789-4.212.622-6-.5 1.025-.397 1.192-1.063.5-2-7.805-3.624-12.305-9.624-13.5-18v-10c1.307-2.885 3.307-5.218 6-7Z" />
    <path fill="#ee613b" d="M17.5 79.5c-.166 6.675 0 13.342.5 20 .754 3.184 2.254 5.851 4.5 8 .333 1 1 1.667 2 2 .203 1.544.87 2.878 2 4-1.2.792-2.533.792-4 0-1.333-2-3-3.667-5-5-1.75-1.159-2.75-2.826-3-5-1.91-6.647-2.243-13.313-1-20 .973-1.64 2.306-2.973 4-4Z" />
    <path fill="#408450" d="M41.5 86.5c-.603 7.602.397 14.935 3 22-3.182-1.693-4.848-4.359-5-8 .617-4.77 1.284-9.436 2-14Z" />
    <path fill="#d8ad2f" d="M33.5 91.5c-.434 3.862-.1 6.195 1 7a10.174 10.174 0 0 1 3-3c.296 1.903.962 3.57 2 5 .152 3.641 1.818 6.307 5 8l2 1c5.438 2.768 10.771 2.435 16-1a18.95 18.95 0 0 0-3 5h-2c-7.871 1.318-14.705-.682-20.5-6a7.292 7.292 0 0 1-2 3c-3.44-2.88-5.273-6.547-5.5-11l4-8Z" />
    <path fill="#d58272" d="M17.5 108.5c2 1.333 3.667 3 5 5-2.667-.667-4.333-2.333-5-5Z" />
    <path fill="#3d7f4c" d="M62.5 108.5c-5.229 3.435-10.562 3.768-16 1 3.542.313 6.875-.021 10-1 3.59-.044 6.09-1.711 7.5-5 .122 1.782-.378 3.448-1.5 5Z" opacity=".987" />
    <path fill="#c0b7bf" d="M57.5 113.5h2a159.52 159.52 0 0 1 27 1.5c1.315 1.395.981 2.395-1 3a242.363 242.363 0 0 1-29 1.5c-7.84 0-15.507-.334-23-1h11a46.723 46.723 0 0 0 17-2 9.86 9.86 0 0 0-6-1v-1c.992.172 1.658-.162 2-1Z" opacity=".98" />
    <path fill="#da5a42" d="M24.5 109.5a32.305 32.305 0 0 0 12 7c1.788 1.122 3.788 1.289 6 .5l-1-1c4.698-.351 9.364-.851 14-1.5v1a246.047 246.047 0 0 1-11 3h-11c-2.56.302-4.893-.032-7-1a2.429 2.429 0 0 0 2-.5c-2.525-.424-4.525-1.59-6-3.5 1.467.792 2.8.792 4 0-1.13-1.122-1.797-2.456-2-4Z" opacity=".969" />
    <path fill="#886f97" d="M55.5 115.5a9.86 9.86 0 0 1 6 1 46.723 46.723 0 0 1-17 2c3.583-.886 7.25-1.886 11-3Z" opacity=".969" />
</svg>
